<svg xmlns="http://www.w3.org/2000/svg" version="1.1" xmlns:xlink="http://www.w3.org/1999/xlink" xmlns:svgjs="http://svgjs.dev/svgjs" viewBox="0 0 800 800" opacity="0.69"><defs><linearGradient x1="50%" y1="0%" x2="50%" y2="100%" id="nnneon-grad"><stop stop-color="hsl(206, 75%, 49%)" stop-opacity="1" offset="0%"></stop><stop stop-color="hsl(331, 90%, 56%)" stop-opacity="1" offset="100%"></stop></linearGradient><filter id="nnneon-filter" x="-100%" y="-100%" width="400%" height="400%" filterUnits="objectBoundingBox" primitiveUnits="userSpaceOnUse" color-interpolation-filters="sRGB">
	<feGaussianBlur stdDeviation="17 8" x="0%" y="0%" width="100%" height="100%" in="SourceGraphic" edgeMode="none" result="blur"></feGaussianBlur></filter><filter id="nnneon-filter2" x="-100%" y="-100%" width="400%" height="400%" filterUnits="objectBoundingBox" primitiveUnits="userSpaceOnUse" color-interpolation-filters="sRGB">
	<feGaussianBlur stdDeviation="20 20" x="0%" y="0%" width="100%" height="100%" in="SourceGraphic" edgeMode="none" result="blur"></feGaussianBlur></filter></defs><g stroke-width="16" stroke="url(#nnneon-grad)" fill="none" transform="rotate(64, 400, 400)"><path d="M388.4530107167675 233.46125231926777C395.59828768523175 229.33666774729716 404.40171231476825 229.33666774729716 411.5469892832325 233.46240701819613L538.4530203016707 306.7315181170911C545.5982972701349 310.8561026890618 550.0000095849032 318.48057971278024 550.0000095849032 326.7309035556499V473.2691257534399C550.0000095849032 481.5194495963096 545.5982972701349 489.14392662002797 538.4530203016707 493.26966589092694L411.5469892832325 566.538776989822C404.40171231476825 570.6633615617925 395.59828768523175 570.6633615617925 388.4530107167675 566.5376222908938L261.54697969832927 493.26851119199864C254.401702729865 489.14392662002797 249.99999041509682 481.5194495963096 249.99999041509682 473.2691257534399V326.7309035556499C249.99999041509682 318.48057971278024 254.401702729865 310.8561026890618 261.54697969832927 306.7303634181629L388.4530107167675 233.46125231926777Z " filter="url(#nnneon-filter)"></path><path d="M497.4530107167675 233.46125231926777C504.59828768523175 229.33666774729716 513.4017123147682 229.33666774729716 520.5469892832325 233.46240701819613L647.4530203016707 306.7315181170911C654.5982972701349 310.8561026890618 659.0000095849032 318.48057971278024 659.0000095849032 326.7309035556499V473.2691257534399C659.0000095849032 481.5194495963096 654.5982972701349 489.14392662002797 647.4530203016707 493.26966589092694L520.5469892832325 566.538776989822C513.4017123147682 570.6633615617925 504.59828768523175 570.6633615617925 497.4530107167675 566.5376222908938L370.54697969832927 493.26851119199864C363.401702729865 489.14392662002797 358.9999904150968 481.5194495963096 358.9999904150968 473.2691257534399V326.7309035556499C358.9999904150968 318.48057971278024 363.401702729865 310.8561026890618 370.54697969832927 306.7303634181629L497.4530107167675 233.46125231926777Z " filter="url(#nnneon-filter2)" opacity="0.31"></path><path d="M279.4530107167675 233.46125231926777C286.59828768523175 229.33666774729716 295.40171231476825 229.33666774729716 302.5469892832325 233.46240701819613L429.4530203016707 306.7315181170911C436.59829727013494 310.8561026890618 441.0000095849032 318.48057971278024 441.0000095849032 326.7309035556499V473.2691257534399C441.0000095849032 481.5194495963096 436.59829727013494 489.14392662002797 429.4530203016707 493.26966589092694L302.5469892832325 566.538776989822C295.40171231476825 570.6633615617925 286.59828768523175 570.6633615617925 279.4530107167675 566.5376222908938L152.54697969832927 493.26851119199864C145.401702729865 489.14392662002797 140.99999041509682 481.5194495963096 140.99999041509682 473.2691257534399V326.7309035556499C140.99999041509682 318.48057971278024 145.401702729865 310.8561026890618 152.54697969832927 306.7303634181629L279.4530107167675 233.46125231926777Z " filter="url(#nnneon-filter2)" opacity="0.31"></path><path d="M388.4530107167675 233.46125231926777C395.59828768523175 229.33666774729716 404.40171231476825 229.33666774729716 411.5469892832325 233.46240701819613L538.4530203016707 306.7315181170911C545.5982972701349 310.8561026890618 550.0000095849032 318.48057971278024 550.0000095849032 326.7309035556499V473.2691257534399C550.0000095849032 481.5194495963096 545.5982972701349 489.14392662002797 538.4530203016707 493.26966589092694L411.5469892832325 566.538776989822C404.40171231476825 570.6633615617925 395.59828768523175 570.6633615617925 388.4530107167675 566.5376222908938L261.54697969832927 493.26851119199864C254.401702729865 489.14392662002797 249.99999041509682 481.5194495963096 249.99999041509682 473.2691257534399V326.7309035556499C249.99999041509682 318.48057971278024 254.401702729865 310.8561026890618 261.54697969832927 306.7303634181629L388.4530107167675 233.46125231926777Z "></path></g></svg>