<svg xmlns="http://www.w3.org/2000/svg" preserveAspectRatio="xMidYMid meet" viewBox="0 0 1000 1000">
  <path d="M0 1e3l1e3 0 0-1e3-1e3 0 0 1e3z" fill="#009bde"/>
  <g fill="white">
    <path d="M145.9 750.4l0-62.7 13.2 0 0 62.7c0 19.6 9.7 29.4 29.3 29.4 19.5 0 29.2-9.9 29.2-29.4l0-62.7 13.2 0 0 62.7c0 26.8-14.2 40.1-42.4 40.1-28.3 0-42.5-13.3-42.5-40.1"/>
    <path d="M259 789.7l0-74.9 8.9 0 2.4 9.7c7.7-6.4 16.1-9.6 25.3-9.7 18.6 0 28 9.3 28 28l0 46.9-13.2 0 0-47.2c0-11.1-5.6-16.7-16.6-16.6-7.6 0-14.7 3.1-21.5 9.4l0 54.4-13.3 0z"/>
    <path d="M365.7 789.7l-13.1 0 0-74.8 13.1 0 0 74.8zm0-89.4-13.1 0 0-12.6 13.1 0 0 12.6z"/>
    <path d="M384 714.9l14.3 0 21.4 58.6 21.3-58.6 14.3 0-30.5 74.8-12.2 0-28.6-74.8z"/>
    <path d="M481.8 745.1l40.5 0c-.3-13.2-6.7-19.7-19.3-19.7-13.3 0-20.4 6.6-21.2 19.7m21.2-30.3c21.3 0 31.9 10.6 32 31.7 0 3-.2 6.2-.7 9.6l-52.5 0c0 15.3 8.9 22.9 26.8 22.9 8.5 0 16-.9 22.7-2.8l0 10.7c-6.7 1.9-14.6 2.8-24.1 2.8-25.8 0-38.6-12.8-38.6-38.2 0-24.4 11.5-36.6 34.4-36.7"/>
    <path d="M558.8 789.7l0-74.9 8.9 0 2.4 9.7c6.6-6.4 14.5-9.6 23.7-9.7l0 11.1c-8.9 0-16.2 3.1-21.7 9.4l0 54.4-13.3 0z"/>
    <path d="M612.4 786.2l0-11.4c8.8 2.8 17.7 4.2 26.7 4.2 12 0 17.9-3.5 17.9-10.6 0-6.7-4.1-10-12.5-10l-10.7 0c-16.2 0-24.3-7.4-24.3-22.1 0-14.2 10.4-21.4 31.2-21.4 8.9 0 17.8 1.2 26.6 3.5l0 11.5c-8.8-2.9-17.7-4.3-26.6-4.3-12.4 0-18.6 3.6-18.6 10.7 0 6.7 3.9 9.9 11.7 9.9l10.7 0c17.1 0 25.7 7.4 25.7 22.2 0 14.2-10.4 21.4-31.1 21.3-8.9 0-17.8-1.2-26.7-3.5"/>
    <path d="M708.7 789.7l-13.1 0 0-74.8 13.1 0 0 74.8zm0-89.4-13.1 0 0-12.6 13.1 0 0 12.6z"/>
    <path d="M737.7 702.8l8.3 0 2.8 12.1 20.3 0 0 10.7-18.2 0 0 43c0 7 3 10.5 9.1 10.5l9.1 0 0 10.6-12.5 0c-12.6 0-18.9-6.7-18.9-20.2l0-66.7z"/>
    <path d="M823.7 687.7l17.1 0-17.1 17.1-11.6 0 11.6-17.1zm-22.1 57.4 40.5 0c-.2-13.2-6.7-19.7-19.2-19.7-13.3 0-20.4 6.6-21.3 19.7m21.3-30.3c21.3 0 31.9 10.6 31.9 31.7 0 3-.2 6.2-.6 9.6l-52.6 0c0 15.3 8.9 22.9 26.8 22.9 8.5 0 16-.9 22.7-2.8l0 10.7c-6.7 1.9-14.6 2.8-24.1 2.8-25.8 0-38.6-12.8-38.6-38.2 0-24.4 11.5-36.6 34.5-36.7"/>
    <path d="M151.1 814.2l0 44.7 26.1 0 0 5.2-32.5 0 0-49.9 6.4 0z"/>
    <path d="M193.8 864.1l-6.4 0 0-36.6 6.4 0 0 36.6zm0-43.8-6.4 0 0-6.1 6.4 0 0 6.1z"/>
    <path d="M207.4 821.5l4.1 0 1.4 5.9 10 0 0 5.2-9 0 0 21.2c0 3.4 1.5 5.1 4.4 5.1l4.6 0 0 5.2-6.2 0c-6.2 0-9.2-3.3-9.3-9.9l0-32.7z"/>
    <path d="M233.5 821.5l4 0 1.4 5.9 9.9 0 0 5.2-8.9 0 0 21.2c0 3.4 1.5 5.1 4.5 5.1l4.4 0 0 5.2-6.1 0c-6.2 0-9.2-3.3-9.2-9.9l0-32.7z"/>
    <path d="M275.2 858.9c7.4 0 11-4.4 11.1-13.3 0-8.6-3.7-13-11.1-13-7.4 0-11 4.4-11 13 0 8.8 3.7 13.2 11 13.3m-17.4-13.1c0-12.2 5.8-18.4 17.4-18.4 11.7 0 17.5 6.2 17.5 18.4 0 12.2-5.8 18.3-17.5 18.3-11.6 0-17.5-6.1-17.4-18.3"/>
    <path d="M303.9 864.1l0-36.6 4.4 0 1.1 4.6c3.2-3.1 7-4.6 11.6-4.6l0 5.3c-4.4 0-8 1.6-10.6 4.7l0 26.6-6.5 0z"/>
    <path d="M343 847c-5.6 0-8.4 2-8.4 5.9 0 4 2.2 5.9 6.7 6 4.5 0 8.2-1.2 11.3-3.6l0-7.6c-3.2-.5-6.4-.7-9.6-.7m-14.9 6.1c0-7.5 5-11.4 14.9-11.4 3.2 0 6.4.3 9.6.7l0-3.4c0-4.2-3.4-6.3-9.9-6.3-3.8 0-7.6.5-11.6 1.7l0-5.2c4-1.2 7.8-1.8 11.6-1.8 11 0 16.4 3.8 16.4 11.4l0 25.3-3.6 0-2.3-3.6c-3.6 2.4-7.6 3.6-11.9 3.6-8.8 0-13.2-3.7-13.2-11"/>
    <path d="M378.8 864.1l-6.4 0 0-49.9 6.4 0 0 49.9z"/>
    <path d="M450.4 862.4c-4.3 1.4-8.9 2.1-13.9 2.1-17.5 0-26.2-8.7-26.2-26.1 0-16.4 8.7-24.7 26.2-24.6 5 0 9.6.7 13.9 2.1l0 5.6c-4.3-1.6-8.7-2.5-13.2-2.5-13.6 0-20.5 6.5-20.5 19.4 0 13.9 6.9 20.8 20.5 20.9 4.5 0 8.9-.9 13.2-2.5l0 5.6z"/>
    <path d="M475.9 814.2l5.3 0 6.1 9-5.3 0-3.4-5.6-3.5 5.6-5.3 0 6.1-9zm2.7 44.7c7.3 0 11-4.4 10.9-13.3 0-8.6-3.7-13-10.9-13-7.4 0-11 4.4-11 13 0 8.8 3.7 13.2 11 13.3m-17.5-13.1c0-12.2 5.9-18.3 17.5-18.3 11.6 0 17.5 6.1 17.4 18.3 0 12.2-5.9 18.3-17.4 18.3-11.7 0-17.5-6.1-17.5-18.3"/>
    <path d="M507.2 821.5l4 0 1.4 5.9 10 0 0 5.2-8.9 0 0 21.2c0 3.4 1.5 5.1 4.4 5.1l4.5 0 0 5.2-6.1 0c-6.2 0-9.2-3.3-9.3-9.9l0-32.7z"/>
    <path d="M537.9 842.3l19.9 0c-.2-6.4-3.3-9.7-9.5-9.7-6.5 0-9.9 3.3-10.4 9.7m10.4-14.9c10.5 0 15.7 5.2 15.7 15.5 0 1.5-.1 3.1-.3 4.7l-25.8 0c0 7.5 4.4 11.3 13.2 11.3 4.1 0 7.9-.5 11.1-1.4l0 5.2c-3.2.9-7.1 1.4-11.8 1.4-12.6 0-18.9-6.3-18.9-18.8 0-11.9 5.6-17.9 16.8-17.9"/>
    <path d="M619.7 834.9c-2.7-1.3-5.6-1.9-8.9-1.9-7.4 0-11.1 3.9-11.1 11.8 0 9.3 3.7 14 11.1 14 3.3 0 6.3-.5 8.9-1.4l0-22.5zm6.4 27c-4.4 1.5-9.9 2.2-16.4 2.2-11 0-16.4-6.3-16.4-19.1 0-11.7 5.8-17.6 17.4-17.6 3.1 0 6.2.6 9 1.8l0-15 6.4 0 0 47.7z"/>
    <path d="M647.3 814.2l-5.3 15.2-6.4 0 5.3-15.2 6.4 0z"/>
    <path d="M680.8 859.3c11.9 0 17.9-6.7 17.9-20.3 0-13.3-6-20-17.9-20-12.2 0-18.2 6.7-18.3 20 0 13.5 6 20.3 18.3 20.3m-25.1-20.1c0-17 8.4-25.4 25.1-25.4 16.5 0 24.7 8.5 24.7 25.4 0 16.8-8.2 25.3-24.7 25.3-16.8 0-25.1-8.5-25.1-25.3"/>
    <path d="M723.8 856.7c2.5 1.3 5.3 1.9 8.5 1.9 7.7 0 11.4-4.6 11.4-13.8 0-8-3.8-12-11.3-12-3.2 0-6.1.3-8.6.9l0 23zm-6.5-27.7c4.9-1 9.9-1.6 15.1-1.6 11.7 0 17.7 5.9 17.7 17.5 0 12.8-5.9 19.3-17.7 19.2-3 0-5.8-.5-8.6-1.7l0 15-6.5 0 0-48.4z"/>
    <path d="M774.4 847c-5.6 0-8.4 2-8.4 5.9 0 4 2.2 5.9 6.7 6 4.5 0 8.2-1.2 11.3-3.6l0-7.6c-3.2-.5-6.4-.7-9.6-.7m-14.9 6.1c0-7.5 5-11.4 14.9-11.4 3.2 0 6.4.3 9.6.7l0-3.4c0-4.2-3.4-6.3-9.9-6.3-3.8 0-7.6.5-11.6 1.7l0-5.2c4-1.2 7.8-1.8 11.6-1.8 11 0 16.4 3.8 16.4 11.4l0 25.3-3.7 0-2.2-3.6c-3.6 2.4-7.6 3.6-11.9 3.6-8.8 0-13.2-3.7-13.2-11"/>
    <path d="M810.2 864.1l-6.4 0 0-49.9 6.4 0 0 49.9z"/>
    <path d="M828.2 842.3l19.9 0c-.2-6.4-3.3-9.7-9.5-9.7-6.5 0-10 3.3-10.4 9.7m10.4-14.9c10.4 0 15.7 5.2 15.6 15.5 0 1.5-.1 3.1-.3 4.7l-25.7 0c0 7.5 4.4 11.3 13.1 11.3 4.1 0 7.9-.5 11.1-1.4l0 5.2c-3.2.9-7.2 1.4-11.8 1.4-12.6 0-18.9-6.3-18.9-18.8 0-11.9 5.6-17.9 16.9-17.9"/>
    <path d="M209 595.6c-19.7-8.5-29.6-23-29.6-43.7l0-138.4-1.5-1.4-27.2 0-1.5 1.4 0 142.7c0 8.5 2.3 18.3 6.7 29.5 16.9 29 38.7 43.4 65.4 43.4l18.4 0c9.1 0 19.2-2.5 30.1-7.3 3.4-2 6.5-4.1 9.5-6.3-19.6-2-39-6.4-55.2-12.7-6.3-2.5-11-4.6-15.1-7.2m101.3-183.5-27.2 0-1.5 1.4 0 138.4-.7 10.3c-.4 15.4-16.9 30.9-31.1 34.6 2.7.8 5.6 1.5 8.4 2 12.6 2.5 26.5 1.3 38.8 0 10.7-12.8 14.8-25.9 14.8-42.6l0-142.7-1.5-1.4z"/>
    <path d="M426.6 598.3c-9.6-3.5-16.4-9.2-21.6-15.3-8.6 5.2-17.5 10.1-26.4 14.5 15.9 21.1 29.3 32.3 64.3 32.3l26.7-.7-20.1-27.9c-7.7 0-13.9.8-22.9-2.9m-30.8-39.8c-.2-1.4-.1-1.5-.1-3l0-256.3-1.5-1.5-27.2 0-1.4 1.5 0 260.8c0 5.3.2 8.7 1.8 14.2 4.9-2.6 10.2-4.9 15-7.7 4.5-2.7 9-5.2 13.4-8"/>
    <path d="M637.2 452.5c-2.3-3.7-4.7-7.1-7.2-10.4-10.3 3.4-19.9 7.7-29.1 12.5 5.2 5.1 9.4 11.8 12.7 20 2.7 9 1.8 13.2 2.9 13.2l27.3 0 1.4-1.4 0-2.3c0-9.9-2.7-20.4-8-31.6m-122.9 23.6c7.8-22.5 22.9-33.8 44.8-33.8l9.7 0c3.8 0 5.7 0 9.1.7 12.4-5.7 25.8-11.1 38.9-14.9-12.9-11.3-26.7-16-43.6-16l-18.4 0c-8.2 0-17.8.9-29.5 6.6-28 15.8-42.7 38.9-42.6 65.4l0 13.7c10.3-7.4 21-12.5 31.4-19.7l.2-2zm102.2 77.2c-.9 0-.5 4.9-2.9 11.8-7.9 22.5-22.8 33.8-44.8 33.8l-9.7 0-12.4-1.5c-22.5-7.7-33.9-22.8-33.9-44.8l0-40c-10 7.5-20 15.2-30.1 22.7l0 21.7c0 9.9 2.7 20.4 8.1 31.6 16.5 26.9 37.9 40.5 64 40.5l18.4 0c8.4 0 18.2-2.2 29.4-6.6 28.4-17.1 42.7-38.8 42.6-65.5l0-2.2-1.4-1.5-27.3 0z"/>
    <path d="M721.4 420.5c2.7-2 5.4-3.8 8.4-5.6 2.9-1.1 5.7-2.2 8.4-3.1 7.1-2.4 13.9-3.7 20.2-3.7l19.2 0c26.1 0 47.4 13.8 64 41.4 5.4 11.4 8.1 22.2 8.1 32.3l0 74.4c0 20.4-8 38-23.8 52.6-5.4 5.1-11.7 9.9-18.9 14.2-2.9 1.2-5.8 2.2-8.6 3.1-7 2.5-13.8 3.7-20.1 3.6l-19.2 0c-26.1 0-47.4-13.8-63.9-41.2-5.4-11.4-8.1-22.2-8.2-32.3l0-74.4c0-18.4 6.5-34.4 19.3-48.1 15.6 1.3 30 4.1 42.3 7.3-.2.1-.2.1-.3.2l-.1 0-.1 0c-7.1 3.1-13.1 6.9-17.7 11.4-4.9 5.4-8.8 12.4-11.7 20.9l-1.4 12.8 0 16.4 0 48.9c0 22.5 11.3 37.8 33.8 45.9l12.4 1.5 9.7 0c5.6 0 10.6-.8 15.3-2.2l0-.1.1 0c7.1-3.1 13-6.9 17.7-11.4 4.9-5.3 8.8-12.3 11.7-20.8l1.5-12.9 0-16.3 0-49c0-18.2-7.2-31.6-21.9-40.4-.4-.2-.6-.4-1-.6-2.3-1.3-5-2.6-7.8-3.7 0 0-36.6-17.9-67.4-21.1"/>
    <path d="M794.9 443.3l3.1-2c0 0-68.3-31.5-133.2-24.3-53 6-77.9 14.2-126.7 42.6-48.9 28.4-86.9 58.7-98.1 66.7-11.2 7.9-81.1 56.7-135.7 66.6-13.9 2.2-34.2 7.2-34.2 7.2 0 0 19.9 4.6 54.3-5.5 34.4-10.1 74.8-35.7 95.6-49.2 21.1-13.6 65-45.1 83.9-59.1 18.7-13.9 70-42.2 103.7-54.1 22.7-8 67.3-14.8 92.8-11.9 45.2 5.1 60.3 9.9 94.5 23"/>
  </g>
<script xmlns=""/></svg>